<svg width="80" height="75" viewBox="0 0 80 75" fill="none" xmlns="http://www.w3.org/2000/svg">
<path d="M40 13.7403L36.4162 10.0567C27.9945 1.40033 12.5707 4.38847 7.00179 15.2642C4.38267 20.3792 3.79375 27.7623 8.57146 37.1879C13.1729 46.2657 22.7384 57.1323 40 68.9729C57.2617 57.1323 66.8271 46.2657 71.4286 37.1879C76.2063 27.7623 75.6173 20.3792 72.9982 15.2642C67.4293 4.38847 52.0055 1.40033 43.5838 10.0567L40 13.7403ZM40 75C-36.6656 24.342 16.3938 -15.2043 39.1216 5.71541C39.4197 5.98984 39.7127 6.27467 40 6.57002C40.2873 6.27469 40.5802 5.98987 40.8784 5.71546C63.6061 -15.2044 116.666 24.342 40 75Z" fill="#2E86AB"/>
<path d="M76.0031 27.9166C76.0745 49.8705 53.0073 63.26 39.7566 71.575C27.5073 63.2567 11.5057 50.7795 6.50369 34.1454C-5.49809 19.5897 19.9982 -11.0749 39.7494 12.8379C53.9991 -4.31321 75.9318 5.96272 76.0031 27.9166Z" fill="#2E86AB"/>
</svg>
